<svg xmlns="http://www.w3.org/2000/svg" version="1.1" xmlns:xlink="http://www.w3.org/1999/xlink" xmlns:svgjs="http://svgjs.com/svgjs" width="125.000000pt" height="128.000000pt"><svg version="1.0" xmlns="http://www.w3.org/2000/svg" width="125.000000pt" height="128.000000pt" viewBox="0 0 125.000000 128.000000" preserveAspectRatio="xMidYMid meet">

<g transform="translate(0.000000,128.000000) scale(0.100000,-0.100000)" fill="#000000" stroke="none">
<path d="M535 1244 c-221 -35 -413 -191 -485 -397 -116 -329 67 -682 405 -783
95 -29 250 -25 345 8 111 39 167 74 245 152 182 184 226 456 109 691 -94 192
-292 320 -506 330 -46 2 -96 1 -113 -1z m266 -86 c176 -65 314 -225 350 -407
15 -77 7 -207 -17 -281 -29 -88 -109 -197 -189 -257 -299 -226 -724 -93 -847
265 -32 94 -32 240 0 334 60 175 214 319 388 363 86 22 230 14 315 -17z"></path>
<path d="M592 1030 c-20 -8 -22 -14 -16 -52 l6 -43 -20 24 -19 23 -21 -27
c-28 -35 -36 -80 -30 -168 18 -269 251 -243 253 27 0 139 -76 246 -153 216z"></path>
</g>
</svg><style>@media (prefers-color-scheme: light) { :root { filter: none; } }
@media (prefers-color-scheme: dark) { :root { filter: invert(100%); } }
</style></svg>